<svg version="1.1" xmlns="http://www.w3.org/2000/svg" xmlns:xlink="http://www.w3.org/1999/xlink" x="0px" y="0px" viewBox="0 0 500 219.6" style="enable-background:new 0 0 500 219.6;" xml:space="preserve">
	<style type="text/css">
		.la-fleche-color {fill:#FF0000;}
	</style>
	<path class="la-fleche-color" d="M500,109.2c-0.1,0.2-0.3,0.3-0.3,0.5c-1,5.3-4.6,8.9-9.9,9.8c-0.9,0.2-1.9,0.3-2.8,0.3c-7.3,0-14.6,0-21.9,0
		c-0.4,0-0.8,0-1.3-0.1c0-33.1,0-66.1,0-99.2c0.5,0,1-0.1,1.5-0.1c7.8,0,15.5,0,23.3,0.1c5.1,0.1,10,4.2,11,9.2
		c0.1,0.3,0.2,0.6,0.3,0.8C500,56.8,500,83,500,109.2z M479.7,104.2c0.9,0.1,1.6,0.2,2.2,0.2c1.4,0,1.9-0.5,2-1.9
		c0.1-0.9,0.2-1.8,0.2-2.7c0-10.8-0.1-21.7-0.1-32.5c0-9.5,0-19,0.1-28.4c0-1.4-1.1-2.6-2.5-2.7c-1.2-0.1-1.8,0.4-1.9,1.6
		c-0.1,0.5-0.1,1-0.1,1.6c0,20.9,0,41.9,0,62.8C479.7,102.7,479.7,103.3,479.7,104.2z"/>
	<path class="la-fleche-color" d="M416.3,219.6c0-0.8,0-1.6,0-2.4c0-30.2,0-60.4,0-90.6c0-0.7,0-1.5,0-2.2c0.4-0.1,0.7-0.2,1-0.2
		c3.9,0,7.8,0,11.6,0c2.2,0,3.2,1.1,3.3,3.3c0,0.5,0,0.9,0,1.4c0,24,0,47.9,0,71.9c0,0.7,0,1.3,0,2.1c1.5,0,2.8,0,4.4,0
		c0-0.8,0-1.5,0-2.3c0-23.7,0-47.5,0-71.2c0-0.9,0-1.8,0.2-2.7c0.2-1.5,1.1-2.3,2.6-2.5c0.5-0.1,1-0.1,1.6-0.1c3.5,0,6.9,0,10.4,0
		c0.4,0,0.7,0.1,1.2,0.1c0,0.6,0.1,1.2,0.1,1.7c0,30.6,0,61.2,0,91.8c0,0.6-0.1,1.1-0.2,1.7C440.4,219.6,428.3,219.6,416.3,219.6z"/>
	<path class="la-fleche-color" d="M348.9,219.6c0-0.7,0.1-1.4,0.1-2c0-30.3,0-60.7,0-91c0-0.7,0-1.3,0-2.1c5.4,0,10.6,0,15.9,0c0,0.7,0,1.4,0,2.1
		c0,24.6,0,49.2,0,73.8c0,0.8,0,1.6,0.2,2.3c0.3,1.1,1.2,1.5,2.3,1.2c1.1-0.4,1.9-1.5,1.9-2.8c0-3.1,0-6.2,0-9.3
		c0-21.7,0-43.4,0-65.1c0-0.7,0-1.4,0-2c1.2-0.4,14-0.5,16-0.1c0,0.5,0,1.1,0,1.6c0,26.6,0,53.2,0,79.7c0,3.7-1,6.9-3.5,9.6
		c-1.7,1.8-3.7,2.9-6.1,3.5c-0.7,0.2-1.4,0.4-2.1,0.7C365.5,219.6,357.2,219.6,348.9,219.6z"/>
	<path class="la-fleche-color" d="M137.4,219.6c-0.1-0.6-0.2-1.1-0.2-1.7c0-30.6,0-61.2,0-91.8c0-0.5,0-1,0-1.7c5.4,0,10.6,0,16,0
		c0,4.4,0,8.8,0,13.2s0,8.8,0,13.2s0,8.8,0,13.2s0,8.8,0,13.2s0,8.8,0,13.2s0,8.8,0,13.3c5.4,0,10.6,0,15.9,0c0,5.4,0,10.6,0.1,15.8
		C158.6,219.6,148,219.6,137.4,219.6z"/>
	<path class="la-fleche-color" d="M224.3,219.6c-0.6-0.2-1.3-0.5-1.9-0.7c-5.3-1.4-9.1-6-9.4-11.5c0-0.5,0-1,0-1.6c0-20.3,0-40.6,0-60.8
		c0-6.3,0-12.6,0-18.9c0-0.6,0.1-1.1,0.1-1.8c5.3,0,10.5,0,15.9,0c0,0.5,0.1,1.1,0.1,1.6c0,3,0,6.1,0,9.1c0,21.4,0,42.9,0,64.3
		c0,0.9,0,1.8,0.1,2.7c0.1,1.2,0.5,1.5,1.7,1.7c0.5,0.1,1,0.1,1.6,0.1c3.6,0,7.1,0,10.7,0c0.6,0,1.1,0,1.9,0c0.1,1.8,0.1,3.5,0.1,5.2
		c0,1.8,0,3.6,0,5.3s0,3.5,0,5.2C238.1,219.6,231.2,219.6,224.3,219.6z"/>
	<path class="la-fleche-color" d="M100,219.6c0-0.5,0-0.9,0-1.4c0-30.6,0-61.2,0-91.8c0-0.6,0-1.2,0-1.9c5.3,0,10.5,0,15.9,0
		c0,0.5,0.1,1.1,0.1,1.6c0,6.4,0,12.8,0,19.2c0,24.2,0,48.4,0,72.7c0,0.6,0.1,1.1,0.1,1.7C110.7,219.6,105.3,219.6,100,219.6z"/>
	<path class="la-fleche-color" d="M463.8,219.6c0-0.8,0-1.6,0-2.4c0-30.2,0-60.4,0-90.5c0-0.7,0-1.5,0-2.3c5.3,0,10.5,0,15.9,0
		c0,0.5,0.1,0.9,0.1,1.4c0,30.8,0,61.5,0,92.3c0,0.5-0.1,1-0.2,1.5C474.3,219.6,469,219.6,463.8,219.6z"/>
	<path class="la-fleche-color" d="M252.3,219.6c0-0.7,0-1.4,0-2c0-30.3,0-60.7,0-91c0-0.7,0-1.3,0-2.1c5.3,0,10.5,0,15.9,0c0,0.6,0,1.3,0,2
		c0,26.9,0,53.8,0,80.7c0,3.6,0,7.2,0,10.9c0,0.6-0.1,1.1-0.2,1.7C262.8,219.6,257.5,219.6,252.3,219.6z"/>
	<path class="la-fleche-color" d="M272.7,219.6c0-0.7-0.1-1.5-0.1-2.2c0-30.3,0-60.6,0-90.8c0-0.7,0-1.3,0-2.1c5.3,0,10.4,0,15.8,0
		c0,0.7,0.1,1.3,0.1,2c0,26.2,0,52.4,0,78.6c0,4.9,0,9.7,0,14.6C283.2,219.6,278,219.6,272.7,219.6z"/>
	<path class="la-fleche-color" d="M484.3,219.6c0-31.6,0-63.2,0-94.8c0-0.1,0.1-0.2,0.1-0.3c6.7-1.8,14,2.8,15.3,9.5c0,0.2,0.2,0.4,0.3,0.7
		c0,28.3,0,56.6,0,84.9C494.8,219.6,489.5,219.6,484.3,219.6z"/>
	<path class="la-fleche-color" d="M76.4,119.8c-12.2,0-24.2,0-36.4,0c0-0.6-0.1-1.2-0.1-1.7c0-18.9,0-37.8,0-56.8c0-9.1,0-18.1,0.1-27.2
		c0-1.5,0.1-3.1,0.5-4.5c1.4-5.3,6-8.9,11.5-9c4.1-0.1,8.3-0.1,12.4,0c6.4,0.2,11.7,5.7,11.7,12.1c0,4.9,0.1,9.9,0.1,14.8
		c0,9,0.1,18,0.1,27c0,14.4,0,28.8,0,43.2C76.6,118.4,76.5,119,76.4,119.8z M60.3,104.3c0-0.7,0-1.3,0-1.8c0-21.1,0-42.2,0-63.4
		c0-0.5,0-0.9,0-1.4c-0.1-0.8-0.5-1.3-1.3-1.5c-1.8-0.5-2.7,0.3-2.8,2.1c0,0.2,0,0.4,0,0.6c0,21.2,0,42.4,0,63.7
		c0,0.6,0.1,1.1,0.1,1.8C57.6,104.3,58.8,104.3,60.3,104.3z"/>
	<path class="la-fleche-color" d="M252.2,20.6c5.5,0,10.7,0,16,0c0,0.7,0,1.4,0,2.1c0,25.8,0,51.7,0,77.5c0,0.7,0,1.5,0.1,2.2
		c0.1,1.4,0.8,2,2.1,2c1.4,0,2-0.6,2-2c0-0.5,0-1,0-1.6c0-26,0-52,0-78c0-0.7,0-1.3,0-2.1c5.4,0,10.6,0,16,0c0.1,0.8,0.1,1.5,0.1,2.3
		c0,10.3,0,20.7,0,31c0,20.3,0,40.6,0,60.9c0,0.8,0,1.7-0.2,2.5c-0.3,1.6-1,2.3-2.5,2.6c-0.6,0.1-1.2,0.1-1.7,0.1
		c-9.3,0-18.6,0-27.9,0c-3.3,0-4.2-0.9-4.2-4.2c0-22.2,0-44.4,0-66.5c0-8.8,0-17.5,0-26.3C252.2,22.2,252.2,21.4,252.2,20.6z"/>
	<path class="la-fleche-color" d="M416.3,119.8c-0.1-0.7-0.1-1.4-0.1-2c0-27.9,0-55.8,0-83.7c0-1.6,0.2-3.2,0.6-4.7c1.4-5,5.6-8.4,10.8-8.9
		c4.6-0.4,9.2-0.4,13.8,0c6.2,0.5,10.9,5.6,11.3,12.1c0,0.7,0,1.4,0,2c0,27.6,0,55.2,0,82.9c0,0.7,0,1.3,0,2.1
		c-0.5,0.1-0.9,0.1-1.3,0.1c-3.8,0-7.7,0-11.5,0c-2.1,0-3.1-0.8-3.3-2.9c-0.1-0.8,0-1.6,0-2.4c0-25,0-50,0-75c0-0.7,0-1.4-0.1-2
		c-0.1-0.9-0.5-1.2-1.4-1.4c-2-0.3-2.7,0.3-2.8,2.3c0,0.6,0,1.2,0,1.7c0,24.9,0,49.8,0,74.7c0,0.8,0,1.7-0.2,2.5
		c-0.3,1.5-0.9,2.2-2.4,2.4c-0.4,0.1-0.8,0.1-1.3,0.1c-3.6,0-7.2,0-10.9,0C417.1,119.9,416.8,119.8,416.3,119.8z"/>
	<path class="la-fleche-color" d="M385.5,119.7c-5.4,0-10.6,0-16,0c0-0.7-0.1-1.3-0.1-1.9c0-15.5,0-31,0-46.6c0-10.4,0-20.8,0-31.1
		c0-0.7,0-1.5,0-2.2c-0.1-1.3-0.9-1.9-2.2-1.9c-1.3,0-2.1,0.6-2.2,2c-0.1,0.5,0,1,0,1.6c0,26.1,0,52.1,0,78.2c0,0.7,0,1.3,0,2.1
		c-5.3,0-10.5,0-15.7,0c-0.3-1.1-0.4-97.4-0.1-99.2c0.4,0,0.8-0.1,1.2-0.1c7.8,0,15.5,0,23.3,0.1c6.1,0.1,11.2,5.1,11.7,11.3
		c0.1,0.7,0.1,1.5,0.1,2.2c0,27.9,0,55.8,0,83.7C385.5,118.3,385.5,119,385.5,119.7z"/>
	<path class="la-fleche-color" d="M116.3,104.4c5.3,0,10.4,0,15.6,0c0,5.2,0,10.2,0,15.3c-10.6,0-21.2,0-31.8,0c0-33,0-65.9,0-99
		c10.6,0,21.1,0,31.8,0c0,5,0,10,0,15.2c-5.2,0-10.3,0-15.6,0C116.3,58.8,116.3,81.5,116.3,104.4z"/>
	<path class="la-fleche-color" d="M190.7,104.2c5.2,0,10.4,0,15.7,0c0,5.3,0,10.4,0,15.6c-10.6,0-21.1,0-31.8,0c0-33,0-66,0-99
		c1.1-0.3,29.9-0.4,31.8-0.1c0,5,0,10,0,15.2c-5.2,0-10.4,0-15.7,0C190.7,58.7,190.7,81.4,190.7,104.2z"/>
	<path class="la-fleche-color" d="M331.1,20.6c0,5.1,0,10.1,0,15.4c-5.3,0-10.5,0-15.8,0c0,0.8-0.1,1.3-0.1,1.9c0,21.2,0,42.5,0,63.7
		c0,0.3,0,0.5,0,0.8c0.1,1.4,0.5,1.8,1.9,1.9c0.5,0,0.9,0,1.4,0c3.6,0,7.1,0,10.7,0c0.6,0,1.1,0,1.7,0c0.4,1.3,0.4,13.9,0.1,15.5
		c-0.4,0-0.9,0.1-1.4,0.1c-5.9,0-11.9-0.1-17.8,0c-6.8,0.1-12.8-5.5-12.8-12.8c0-0.4,0-0.7,0-1.1c0-27.7,0-55.5,0-83.2
		c0-0.7,0-1.4,0-2.2C309.8,20.6,320.4,20.6,331.1,20.6z"/>
	<path class="la-fleche-color" d="M213.1,119.8c0-0.6-0.1-1.1-0.1-1.6c0-28,0-56.1,0-84.1c0-1.5,0.2-3,0.6-4.5c1.4-5.1,5.6-8.8,10.9-9
		c6.5-0.2,13.1-0.1,19.7-0.1c0.2,0,0.5,0.1,0.8,0.1c0,5.1,0,10.2,0,15.4c-0.6,0-1.1,0.1-1.7,0.1c-3.7,0-7.3,0-11,0
		c-0.5,0-1.1,0-1.6,0.1c-1,0.1-1.4,0.4-1.5,1.5c-0.1,0.8-0.1,1.7-0.1,2.5c0,25.8,0,51.7,0,77.5c0,0.7,0,1.4,0,2.1
		C223.7,119.8,218.5,119.8,213.1,119.8z"/>
	<path class="la-fleche-color" d="M0,219.2c0-31.6,0-63.1,0-94.8c5.3,0,10.6,0,16.1,0c0,26.4,0,52.8,0,79.4c5.4,0,10.5,0,15.7,0
		c0.4,1.3,0.4,13.5,0.1,15.3C30.8,219.4,2.2,219.5,0,219.2z"/>
	<path class="la-fleche-color" d="M299.2,219.3c0-31.7,0-63.2,0-94.8c5.3,0,10.5,0,15.9,0c0,26.4,0,52.8,0,79.4c5.4,0,10.6,0,16,0
		c0,5.2,0,10.3,0,15.5C320.5,219.3,309.9,219.3,299.2,219.3z"/>
	<path class="la-fleche-color" d="M190.5,124.3c0,13.3,0,26.5,0,39.7s0,26.4,0,39.8c5.4,0,10.7,0,15.9,0c0.4,1.3,0.4,13.5,0.2,15.3
		c-1.1,0.3-30.1,0.4-32.2,0.1c0-0.6,0-1.3,0-1.9c0-25.3,0-50.6,0-76c0-2.1-0.1-4.2,0.2-6.3c0.8-6,5.4-10.2,11.4-10.7
		C187.4,124.2,188.8,124.3,190.5,124.3z"/>
	<path class="la-fleche-color" d="M15.8,119.8c-5.2,0-10.3,0-15.5,0c-0.3-1.2-0.4-97.6,0-99.2c5.2,0,10.3,0,15.5,0
		C16.1,21.8,16.1,118.1,15.8,119.8z"/>
	<path class="la-fleche-color" d="M153,119.8c-5.3,0-10.4,0-15.7,0c0-33,0-66,0-99.1c5.2,0,10.4,0,15.6,0C153.2,21.7,153.4,115.7,153,119.8z"/>
	<path class="la-fleche-color" d="M40.4,124.4c5.2,0,10.4,0,15.7,0c0,31.6,0,63.1,0,94.7c-1.1,0.3-13.6,0.4-15.7,0.1
		C40.1,218.1,40.1,126.3,40.4,124.4z"/>
	<path class="la-fleche-color" d="M76.5,219.3c-5.3,0-10.5,0-15.7,0c0-31.6,0-63.2,0-94.8c5.2,0,10.4,0,15.7,0C76.5,156.1,76.5,187.6,76.5,219.3z
		"/>
	<path class="la-fleche-color" d="M393.6,20.6c5.2,0,10.3,0,15.7,0c0,0.6,0.1,1.2,0.1,1.8c0,12.4,0,24.7,0,37.1c0,10.2,0,20.3,0,30.5
		c0,1.4-0.1,2.7-0.3,4.1c-1,5.4-5.5,9.5-11,9.9c-1.5,0.1-2.9,0-4.3,0C393.4,102.6,393.3,22.7,393.6,20.6z"/>
	<path class="la-fleche-color" d="M163,15.5c0-5.2,0-10.2,0-15.3c0.4,0,0.8-0.1,1.1-0.1c9.8,0,19.6-0.3,29.4,0c9,0.3,13.3,6.8,12.7,14.5
		c0,0.3-0.1,0.5-0.2,0.9C191.7,15.5,177.4,15.5,163,15.5z"/>
</svg>
